<?xml version="1.0" standalone="no"?>
<!DOCTYPE svg PUBLIC "-//W3C//DTD SVG 20010904//EN"
 "http://www.w3.org/TR/2001/REC-SVG-20010904/DTD/svg10.dtd">
<svg version="1.0" xmlns="http://www.w3.org/2000/svg"
 width="512.000000pt" height="512.000000pt" viewBox="0 0 512.000000 512.000000"
 preserveAspectRatio="xMidYMid meet">
<metadata>
Created by potrace 1.14, written by Peter Selinger 2001-2017
</metadata>
<g transform="translate(0.000000,512.000000) scale(0.100000,-0.100000)"
fill="#000000" stroke="none">
<path d="M2425 4878 c-66 -22 -183 -59 -260 -83 -236 -73 -436 -135 -1078
-336 l-617 -194 2 -690 3 -690 370 -118 c204 -64 458 -145 565 -178 107 -33
204 -64 215 -69 19 -8 383 -123 1030 -326 149 -47 279 -89 290 -93 11 -5 133
-44 270 -86 138 -43 253 -80 258 -82 21 -12 -173 -213 -262 -271 -31 -20 -58
-40 -61 -43 -3 -3 -36 -23 -75 -44 -82 -44 -93 -50 -326 -178 -97 -53 -182
-97 -188 -97 -9 0 -187 95 -511 273 -220 120 -389 291 -490 494 -38 77 -78
184 -87 233 -2 14 -9 30 -16 36 -10 10 -360 124 -379 124 -3 0 -5 -8 -3 -17 2
-10 11 -65 20 -122 27 -167 101 -368 189 -511 148 -240 328 -407 606 -562 122
-68 164 -91 295 -163 22 -12 115 -63 207 -114 l167 -92 88 47 c48 26 93 50 98
54 6 4 42 24 80 45 277 149 501 275 565 318 214 141 383 333 498 563 45 90
107 244 100 249 -2 1 -120 39 -263 85 -702 222 -1407 445 -1750 555 -126 40
-311 99 -410 130 -99 31 -227 72 -285 90 -58 19 -178 57 -266 85 l-161 52 -1
398 0 398 26 11 c33 14 369 120 399 126 12 3 35 10 50 16 16 6 35 12 43 14 8
2 65 19 127 39 61 20 120 39 130 41 10 2 97 30 193 60 96 31 202 65 235 75 60
18 325 101 443 138 l63 20 222 -70 c122 -38 380 -119 572 -179 193 -60 413
-130 490 -154 77 -24 203 -64 280 -88 l140 -44 2 -444 c1 -244 2 -472 2 -505
l1 -62 83 -26 c45 -14 130 -41 190 -60 l107 -34 0 722 0 722 -142 43 c-79 24
-161 50 -183 57 -37 13 -557 176 -920 289 -255 79 -322 100 -587 184 -142 45
-261 81 -265 80 -5 -1 -62 -19 -128 -41z"/>
<path d="M2485 4225 c-38 -13 -151 -49 -250 -80 -250 -79 -419 -133 -495 -158
-36 -11 -69 -22 -75 -23 -5 -1 -68 -21 -140 -44 -162 -52 -213 -69 -348 -110
l-107 -34 0 -215 0 -216 353 -112 c792 -251 1001 -317 1192 -378 110 -35 342
-109 515 -164 173 -55 466 -148 650 -206 184 -59 366 -116 403 -128 64 -19 68
-22 63 -46 -3 -14 -8 -42 -11 -61 -18 -108 -89 -314 -150 -436 -42 -82 -134
-233 -155 -254 -3 -3 -23 -27 -44 -55 -59 -76 -211 -223 -298 -288 -80 -60
-167 -113 -303 -186 -44 -24 -84 -47 -90 -51 -5 -4 -46 -26 -90 -50 -98 -52
-154 -83 -365 -200 -91 -50 -172 -92 -180 -92 -8 0 -118 57 -245 127 -126 70
-264 146 -305 168 -41 22 -88 49 -105 58 -16 10 -52 30 -80 44 -102 52 -167
92 -257 155 -100 70 -290 251 -356 340 -23 30 -45 60 -50 65 -44 56 -187 323
-196 368 -2 7 -8 26 -15 42 -39 94 -89 339 -93 458 l-3 68 -160 50 c-88 27
-170 54 -183 59 -45 19 -45 18 -39 -137 4 -82 8 -159 11 -173 2 -14 7 -47 11
-73 8 -62 9 -65 34 -168 92 -379 282 -714 561 -989 167 -165 277 -243 560
-399 102 -56 192 -106 200 -111 8 -6 22 -13 30 -17 21 -9 352 -191 370 -203 8
-5 35 -20 60 -33 80 -43 164 -89 207 -114 l42 -24 68 37 c37 20 73 40 78 44 6
4 51 29 100 55 50 27 106 57 125 68 19 11 55 31 80 45 25 13 68 37 95 52 60
33 91 50 310 169 334 182 451 266 635 451 41 42 91 96 110 119 19 24 40 49 47
56 40 43 175 260 229 370 130 267 210 588 209 844 l0 84 -55 18 c-656 210
-898 288 -1060 339 -107 34 -220 70 -250 80 -30 10 -122 39 -205 65 -82 26
-253 80 -380 120 -126 40 -403 128 -615 195 -212 67 -391 126 -399 130 -15 8
16 18 567 190 l313 98 107 -35 c59 -19 114 -36 122 -38 16 -4 131 -40 320
-100 198 -63 560 -175 565 -175 2 0 6 -80 7 -177 l3 -178 40 -11 c22 -6 47
-13 55 -17 29 -12 247 -77 258 -77 9 0 12 95 12 378 l0 378 -57 18 c-85 26
-362 113 -653 206 -140 45 -368 117 -506 160 -138 44 -257 81 -265 84 -8 2
-45 -6 -84 -19z"/>
</g>
</svg>
