<svg width="24" height="24" viewBox="0 0 24 24" fill="none" xmlns="http://www.w3.org/2000/svg">
<path d="M17.3906 18.1438C17.3906 18.5752 17.0409 18.925 16.6094 18.925H15.0729C14.6414 18.925 14.2917 18.5752 14.2917 18.1438C14.2917 17.7123 14.6414 17.3625 15.0729 17.3625H16.6094C17.0409 17.3625 17.3906 17.7123 17.3906 18.1438ZM22 21.2167C22 21.6481 21.6502 21.9979 21.2188 21.9979H2.78125C2.34977 21.9979 2 21.6481 2 21.2167C2 17.7771 3.75938 14.5952 6.6607 12.7605C6.13953 11.8568 5.84113 10.8092 5.84113 9.69322C5.84113 9.13294 5.84113 7.58103 5.84113 7.02314C4.91281 6.53911 4.32836 5.89634 4.32836 5.08384C4.32836 4.39173 4.77102 3.41868 6.87992 2.71326C11.1966 1.26947 19.6716 1.99701 19.6716 5.08384C19.6716 5.64306 19.3824 6.38572 18.1589 7.0224V9.69322C18.1589 10.8092 17.8605 11.8568 17.3393 12.7605C20.2463 14.5988 22 17.784 22 21.2167ZM16.5861 9.9972C14.1569 11.6662 9.83781 11.6625 7.41395 9.9972C7.57098 12.3904 9.56773 14.2896 12 14.2896C14.4323 14.2896 16.429 12.3904 16.5861 9.9972ZM12 9.68509C14.5225 9.68509 16.3327 8.63915 16.5696 7.62118C13.8692 8.36169 10.0656 8.34306 7.43078 7.62294C7.66937 8.64036 9.47891 9.68509 12 9.68509ZM5.89086 5.08384C5.89086 5.13935 6.08254 5.45353 6.91699 5.80146C9.55141 6.87607 14.4309 6.87966 17.0837 5.80115C17.9175 5.45333 18.1091 5.13931 18.1091 5.08384C18.1091 5.01935 17.851 4.60536 16.6244 4.19509C14.088 3.34677 9.90449 3.34923 7.37555 4.19509C6.14898 4.60536 5.89086 5.01935 5.89086 5.08384ZM3.59844 20.4354H11.2188V15.8027C9.81473 15.6242 8.55699 14.9709 7.61137 14.0096C5.3875 15.3664 3.84969 17.7143 3.59844 20.4354ZM20.4016 20.4354C20.1503 17.7142 18.6125 15.3664 16.3886 14.0096C15.443 14.9709 14.1853 15.6242 12.7812 15.8027V20.4354H20.4016Z" fill="#1F1F1F"/>
</svg>
