<svg width="24" height="24" viewBox="0 0 24 24" fill="none" xmlns="http://www.w3.org/2000/svg">
<path d="M21 11C21 16.55 17.16 21.74 12 23C6.84 21.74 3 16.55 3 11V5L12 1L21 5V11ZM12 21C15.75 20 19 15.54 19 11.22V6.3L12 3.18L5 6.3V11.22C5 15.54 8.25 20 12 21Z" fill="#1F1F1F"/>
<path d="M15.2759 9.62687L15.7831 9.12973C16.0394 8.87344 16.0492 8.59723 15.8234 8.36623L15.6526 8.19544C15.4265 7.96937 15.1503 7.99466 14.894 8.24066L14.3868 8.74294L15.2759 9.62687ZM9.35452 15.533L14.8338 10.0587L13.955 9.17473L8.47059 14.654L7.99381 15.7692C7.94859 15.8896 8.07417 16.0304 8.19459 15.98L9.35452 15.533Z" fill="#1F1F1F"/>
</svg>
