<svg width="233" height="60" viewBox="0 0 233 60" fill="none" xmlns="http://www.w3.org/2000/svg">
<path d="M45.352 27.1123L40.6961 25.6319L15.0971 17.4724L16.3128 17.0937L19.6409 16.0436L26.5386 13.8832L40.7306 18.3503V22.7486L45.3865 24.2376V14.546L43.2396 13.866L34.2209 10.9913L26.5386 8.54688L18.8563 10.9913L11.3292 13.3926L9.82899 13.8747L8.00972 14.4427L7.69071 14.546V19.9943L12.3466 21.4833L40.7047 30.5207L45.2572 31.9668L47.9214 32.8275C47.5485 35.4443 46.6981 37.9705 45.4124 40.2811C44.9454 41.1324 44.4182 41.9494 43.8345 42.7256C42.0088 45.2013 39.6711 47.2561 36.98 48.7506L26.5386 54.5173L16.0972 48.7506C12.7907 46.93 10.0213 44.2742 8.06629 41.0492C6.11126 37.8242 5.03923 34.143 4.95752 30.3744L0.103272 28.8252V29.8321C0.102968 34.5522 1.36963 39.1862 3.7715 43.252C6.17338 47.3178 9.62271 50.6669 13.7607 52.9508L26.5386 60L39.3165 52.9508C43.0847 50.864 46.2868 47.892 48.6457 44.2921C49.1716 43.4916 49.6551 42.6642 50.0942 41.8132C51.2811 39.4604 52.1149 36.946 52.5687 34.3508C52.8341 32.8591 52.9697 31.3472 52.9739 29.8321V29.5826L48.137 28.0419L45.352 27.1123Z" fill="#A3B8D0"/>
<path d="M47.7147 6.67049L39.9548 4.24334L34.1952 2.4272L27.47 0.31851L26.4698 0L25.461 0.31851L18.7444 2.4272L12.9849 4.24334L5.22499 6.67049L0 8.31447V25.8299L4.83698 27.3706L7.58743 28.2313L12.2434 29.7202L38.1096 37.9487C37.5278 38.7896 36.854 39.5633 36.1007 40.2554C35.2605 41.0342 34.3281 41.7076 33.3244 42.2608L26.4698 46.048L19.6153 42.2608C17.8297 41.2803 16.2769 39.927 15.0628 38.2932C13.8486 36.6593 13.0017 34.7833 12.5796 32.793L7.67366 31.2265C7.90328 34.3502 8.90974 37.3675 10.6019 40.005C12.2941 42.6426 14.6186 44.8172 17.3649 46.3319L26.4698 51.3585L35.5748 46.3319C37.6465 45.1911 39.4837 43.6696 40.9894 41.8477C41.6223 41.0904 42.1987 40.2878 42.7138 39.4463C43.5095 38.0936 44.135 36.6482 44.5762 35.1427L40.1531 33.7312L12.3037 24.8573L7.6478 23.3769L4.89734 22.5162V12.3167L6.37172 11.852L13.9505 9.46779L21.7104 7.04064L26.5302 5.52579L31.3499 7.04064L39.1098 9.46779L48.163 12.3167V25.1499L53 26.6906V8.34888L47.7147 6.67049Z" fill="#A3B8D0"/>
<path d="M64.4076 22.7317V26.1584H62.0007V17.3432H64.4076V20.6157H65.4859C65.7136 19.6355 66.2592 18.7566 67.0387 18.1142C67.8382 17.4306 68.8654 17.0671 69.9201 17.0947C70.5234 17.0803 71.1231 17.1918 71.6804 17.422C72.2376 17.6523 72.74 17.996 73.1551 18.4311C74.0074 19.3292 74.4821 20.5167 74.4821 21.7508C74.4821 22.9848 74.0074 24.1723 73.1551 25.0704C72.74 25.5055 72.2376 25.8493 71.6804 26.0795C71.1231 26.3097 70.5234 26.4212 69.9201 26.4069C68.8575 26.4324 67.8237 26.0626 67.0215 25.3703C66.2404 24.7034 65.701 23.8006 65.4859 22.8002L64.4076 22.7317ZM71.4383 19.9132C71.2521 19.6934 71.0197 19.5166 70.7574 19.3954C70.4952 19.2741 70.2094 19.2113 69.9201 19.2113C69.6308 19.2113 69.3449 19.2741 69.0827 19.3954C68.8204 19.5166 68.588 19.6934 68.4018 19.9132C67.9939 20.4303 67.7723 21.0682 67.7723 21.7251C67.7723 22.3819 67.9939 23.0198 68.4018 23.537C68.5863 23.7595 68.8181 23.9386 69.0806 24.0617C69.3431 24.1847 69.6298 24.2485 69.9201 24.2485C70.2103 24.2485 70.497 24.1847 70.7595 24.0617C71.022 23.9386 71.2538 23.7595 71.4383 23.537C71.852 23.0224 72.0773 22.3835 72.0773 21.7251C72.0773 21.0667 71.852 20.4278 71.4383 19.9132Z" fill="white"/>
<path d="M80.514 17.3175C80.9468 17.2975 81.3793 17.3629 81.7865 17.51C82.1937 17.657 82.5675 17.8827 82.8863 18.1741C83.4721 18.7627 83.8007 19.5568 83.8007 20.3844C83.8007 21.2119 83.4721 22.0061 82.8863 22.5946C82.567 22.8852 82.1931 23.1105 81.786 23.2575C81.3789 23.4045 80.9467 23.4703 80.514 23.4513H78.9266V26.0984H76.5198V17.2832L80.514 17.3175ZM78.9266 19.4591V21.3524H80.4018C80.534 21.3546 80.6654 21.3308 80.7883 21.2822C80.9112 21.2337 81.0232 21.1615 81.1178 21.0697C81.2107 20.9854 81.2848 20.8829 81.3356 20.7686C81.3863 20.6543 81.4125 20.5307 81.4125 20.4058C81.4125 20.2809 81.3863 20.1573 81.3356 20.043C81.2848 19.9287 81.2107 19.8261 81.1178 19.7419C81.0232 19.6501 80.9112 19.5778 80.7883 19.5293C80.6654 19.4808 80.534 19.4569 80.4018 19.4591H78.9266Z" fill="white"/>
<path d="M88.1051 17.3169V22.2257L91.9008 17.3169H93.9972V26.1321H91.6162V21.2405L87.8031 26.1492H85.7241V17.334L88.1051 17.3169Z" fill="white"/>
<path d="M96.1456 23.9904L96.2836 23.8533C96.3988 23.7182 96.5 23.5718 96.5855 23.4164C96.7343 23.1768 96.8613 22.9245 96.9651 22.6625C97.1014 22.3041 97.2054 21.9342 97.2757 21.5575C97.3714 21.075 97.4177 20.5842 97.4137 20.0925V17.3169H104.005V23.9904H105.022V27.8969H102.607V26.1321H98.0435V27.8969H95.6366V23.9904H96.1456ZM99.6911 21.5575C99.6188 21.9375 99.512 22.3102 99.372 22.6711C99.2426 22.9538 99.1218 23.2023 99.001 23.4079C98.9174 23.5738 98.8099 23.7268 98.6818 23.8619L98.5524 23.9904H101.598V19.4586H99.8206V20.0925C99.8226 20.5837 99.7793 21.0741 99.6911 21.5575Z" fill="white"/>
<path d="M109.336 17.3169V22.2257L113.14 17.3169H115.228V26.1321H112.821V21.2405L109.008 26.1492H106.929V17.334L109.336 17.3169Z" fill="white"/>
<path d="M119.869 20.024C119.858 20.208 119.885 20.3923 119.947 20.5659C120.009 20.7395 120.106 20.899 120.231 21.0349C120.363 21.1624 120.52 21.2616 120.692 21.3264C120.865 21.3912 121.048 21.4203 121.232 21.4118C121.481 21.4133 121.728 21.3757 121.965 21.3005C122.15 21.2542 122.327 21.1821 122.492 21.0863L122.656 20.9663V17.3169H125.062V26.1321H122.673V23.1766C122.075 23.4371 121.428 23.5657 120.775 23.5535C120.329 23.5776 119.884 23.5076 119.467 23.3481C119.051 23.1886 118.673 22.9433 118.359 22.6283C117.748 21.9146 117.439 20.9935 117.497 20.0583V17.3512H119.904L119.869 20.024Z" fill="white"/>
<path d="M134.577 24.1189V26.1321H127.607V17.3169H134.457V19.3301H130.014V20.7179H133.464V22.6112H130.014V24.1189H134.577Z" fill="white"/>
<path d="M139.132 23.5285C139.37 23.7656 139.654 23.9517 139.967 24.0755C140.28 24.1992 140.615 24.258 140.952 24.2482C141.747 24.2334 142.509 23.9284 143.092 23.3915L143.359 23.1088L144.748 24.6165C144.704 24.6858 144.655 24.7517 144.601 24.8136C144.467 24.9657 144.32 25.1061 144.161 25.2333C143.927 25.4379 143.673 25.6187 143.402 25.773C143.065 25.9569 142.705 26.098 142.333 26.1928C141.884 26.3202 141.419 26.3836 140.952 26.3813C140.305 26.3964 139.66 26.283 139.058 26.0476C138.455 25.8123 137.905 25.4597 137.441 25.0106C136.987 24.5905 136.625 24.082 136.377 23.5168C136.129 22.9515 136.001 22.3417 136.001 21.7252C136.001 21.1088 136.129 20.499 136.377 19.9337C136.625 19.3685 136.987 18.86 137.441 18.4399C137.905 17.9908 138.455 17.6382 139.058 17.4029C139.66 17.1675 140.305 17.0541 140.952 17.0692C141.41 17.0672 141.866 17.1277 142.307 17.2491C142.679 17.3487 143.036 17.4986 143.368 17.6946C143.621 17.8495 143.863 18.0212 144.092 18.2086C144.263 18.3344 144.414 18.4845 144.541 18.654L144.688 18.834L143.23 20.3417L143.126 20.2132C143.037 20.1193 142.942 20.0306 142.842 19.9476C142.698 19.8185 142.542 19.7038 142.376 19.605C142.18 19.4842 141.968 19.3918 141.746 19.3309C141.489 19.2534 141.221 19.213 140.952 19.2109C140.615 19.2011 140.28 19.2598 139.967 19.3836C139.654 19.5074 139.37 19.6935 139.132 19.9305C138.893 20.1631 138.706 20.4423 138.581 20.7505C138.456 21.0586 138.397 21.389 138.407 21.721C138.397 22.0554 138.457 22.3884 138.581 22.6993C138.706 23.0101 138.893 23.2923 139.132 23.5285Z" fill="white"/>
<path d="M148.924 23.8619V26.1321H146.517V17.3169H148.924V20.7436L151.84 17.3169H154.591L151.425 20.9663L154.876 26.1064H152.09L149.873 22.7654L148.924 23.8619Z" fill="white"/>
<path d="M159.189 24.2474L158.551 26.1321H155.963L159.327 17.3169H161.984L165.349 26.1321H162.761L162.131 24.2474H159.189ZM160.647 19.7756L159.785 22.3456H161.493L160.647 19.7756Z" fill="white"/>
<path d="M174.433 26.1322H172.017V23.3565H170.723L169.205 26.1322H166.669L168.506 22.9197L168.342 22.8425C168.216 22.7556 168.095 22.6612 167.98 22.5598C167.809 22.4091 167.653 22.2428 167.514 22.063C167.361 21.8375 167.239 21.5926 167.152 21.3348C167.04 21.0155 166.984 20.6792 166.988 20.3411C166.979 19.9376 167.056 19.5368 167.213 19.1648C167.371 18.7928 167.606 18.458 167.902 18.1822C168.213 17.8947 168.578 17.6711 168.977 17.5241C169.375 17.3771 169.798 17.3096 170.223 17.3255H174.433V26.1322ZM169.688 20.9921C169.779 21.0779 169.886 21.1448 170.003 21.1889C170.12 21.233 170.245 21.2535 170.37 21.2491H172.017V19.4844H170.37C170.118 19.4742 169.873 19.5636 169.688 19.7328C169.602 19.8144 169.534 19.9129 169.488 20.022C169.442 20.1311 169.419 20.2485 169.421 20.3667C169.419 20.5903 169.506 20.8055 169.662 20.9664L169.688 20.9921Z" fill="white"/>
<path d="M183.845 26.3806V25.2498C182.768 25.2558 181.728 24.8616 180.929 24.1447C180.57 23.8234 180.283 23.4309 180.087 22.9926C179.891 22.5543 179.79 22.08 179.79 21.6004C179.79 21.1207 179.891 20.6464 180.087 20.2081C180.283 19.7698 180.57 19.3773 180.929 19.056C181.728 18.3392 182.768 17.9449 183.845 17.9509V17H186.252V17.9509C187.328 17.9449 188.368 18.3392 189.167 19.056C189.525 19.3773 189.81 19.7693 190.005 20.2067C190.201 20.6442 190.302 21.1175 190.302 21.5961C190.302 22.0746 190.201 22.548 190.005 22.9854C189.81 23.4229 189.525 23.8149 189.167 24.1361C188.37 24.8561 187.329 25.2534 186.252 25.2498V26.3806H183.845ZM182.637 22.7483C182.965 23.0536 183.395 23.2276 183.845 23.2366V19.9555C183.393 19.9636 182.962 20.1412 182.637 20.4524C182.489 20.6042 182.374 20.7843 182.298 20.9816C182.223 21.1789 182.188 21.3894 182.197 21.6004C182.19 21.8111 182.225 22.0213 182.3 22.2184C182.376 22.4155 182.49 22.5957 182.637 22.7483ZM187.451 20.4524C187.125 20.148 186.699 19.9714 186.252 19.9555V23.2366C186.699 23.2279 187.126 23.0538 187.451 22.7483C187.598 22.5961 187.714 22.4162 187.791 22.2191C187.868 22.022 187.905 21.8117 187.899 21.6004C187.907 21.3888 187.871 21.1779 187.794 20.9805C187.717 20.7832 187.6 20.6035 187.451 20.4524Z" fill="white"/>
<path d="M194.611 17.3169V22.2257L198.415 17.3169H200.503V26.1321H198.096V21.2405L194.283 26.1492H192.204V17.334L194.611 17.3169Z" fill="white"/>
<path d="M207.042 17.3175C207.475 17.2975 207.907 17.3629 208.314 17.51C208.722 17.657 209.095 17.8827 209.414 18.1741C210 18.7627 210.329 19.5568 210.329 20.3844C210.329 21.2119 210 22.0061 209.414 22.5946C209.095 22.8852 208.721 23.1105 208.314 23.2575C207.907 23.4045 207.475 23.4703 207.042 23.4513H205.489V26.0984H203.082V17.2832L207.042 17.3175ZM205.455 19.4591V21.3524H206.913C207.045 21.3546 207.176 21.3308 207.299 21.2822C207.422 21.2337 207.534 21.1615 207.629 21.0697C207.721 20.9854 207.796 20.8829 207.846 20.7686C207.897 20.6543 207.923 20.5307 207.923 20.4058C207.923 20.2809 207.897 20.1573 207.846 20.043C207.796 19.9287 207.721 19.8261 207.629 19.7419C207.534 19.6501 207.422 19.5778 207.299 19.5293C207.176 19.4808 207.045 19.4569 206.913 19.4591H205.455Z" fill="white"/>
<path d="M214.633 20.9064V26.1321H212.227V17.3169H214.375L217.101 20.7864L219.827 17.3169H221.983V26.1321H219.577V20.9064L217.101 23.9904L214.633 20.9064Z" fill="white"/>
<path d="M226.858 24.2474L226.228 26.1321H223.64L226.996 17.3169H229.644L233 26.1321H230.412L229.774 24.2474H226.858ZM228.316 19.7756L227.453 22.3456H229.101L228.316 19.7756Z" fill="white"/>
<path d="M64.2178 39.3504L63.588 41.2351H61L64.3644 32.4199H67.0214L70.3859 41.2351H67.7979L67.1595 39.3504H64.2178ZM65.6757 34.8786L64.8561 37.4486H66.4952L65.6757 34.8786Z" fill="white"/>
<path d="M80.0564 41.2351H77.6496V37.8083H74.4146V41.2351H72.0077V32.4199H74.4146V35.701H77.6496V32.4199H80.0564V41.2351Z" fill="white"/>
<path d="M82.2047 39.1019L82.3427 38.9564C82.4579 38.8212 82.5591 38.6748 82.6446 38.5195C82.7933 38.2798 82.9204 38.0275 83.0242 37.7656C83.1607 37.4101 83.2646 37.043 83.3348 36.669C83.4305 36.1837 83.4767 35.6901 83.4728 35.1955V32.4199H90.0636V39.1019H91.0816V42.9999H88.6661V41.2351H84.1025V42.9999H81.6957V39.1019H82.2047ZM85.7503 36.6604C85.6792 37.0408 85.5723 37.4137 85.431 37.7742C85.3016 38.0569 85.1809 38.3053 85.0601 38.5195C84.9746 38.6817 84.8672 38.8315 84.7409 38.9648L84.6115 39.1019H87.6568V34.5702H85.8796V35.1955C85.8825 35.6868 85.8392 36.1772 85.7503 36.6604Z" fill="white"/>
<path d="M96.982 32.4201C97.4163 32.3985 97.8506 32.4631 98.2594 32.6102C98.6682 32.7573 99.0434 32.9839 99.363 33.2768C99.9504 33.8628 100.28 34.6559 100.28 35.4827C100.28 36.3095 99.9504 37.1026 99.363 37.6886C99.0447 37.9808 98.671 38.2071 98.2637 38.3542C97.8563 38.5013 97.4236 38.5662 96.9906 38.5453H95.4033V41.1839H92.9965V32.3687L96.982 32.4201ZM95.3947 34.5704V36.455H96.8526C96.9849 36.4577 97.1164 36.434 97.2394 36.3855C97.3623 36.3369 97.4743 36.2645 97.5686 36.1724C97.6644 36.091 97.7411 35.9897 97.7933 35.8758C97.8455 35.7618 97.8718 35.6379 97.8706 35.5127C97.8718 35.3875 97.8455 35.2636 97.7933 35.1496C97.7411 35.0356 97.6644 34.9344 97.5686 34.853C97.4743 34.7609 97.3623 34.6884 97.2394 34.6398C97.1164 34.5913 96.9849 34.5677 96.8526 34.5704H95.3947Z" fill="white"/>
<path d="M109.137 39.2307V41.2438H102.167V32.4287H109.016V34.4505H104.556V35.804H108.007V37.6972H104.556V39.2307H109.137Z" fill="white"/>
<path d="M118.454 41.2352H116.047V38.4682H114.779L113.252 41.2352H110.716L112.553 38.0313L112.39 37.9456C112.263 37.8587 112.142 37.7643 112.027 37.6629C111.859 37.5153 111.706 37.3517 111.57 37.1746C111.41 36.9485 111.285 36.7002 111.199 36.4378C111.091 36.1175 111.035 35.7819 111.035 35.4441C111.028 35.0421 111.106 34.6432 111.263 34.2728C111.421 33.9025 111.654 33.5689 111.95 33.2938C112.26 33.0055 112.625 32.7814 113.023 32.6344C113.422 32.4873 113.845 32.4202 114.27 32.4371H118.454V41.2352ZM113.709 36.0952C113.8 36.1809 113.907 36.2478 114.024 36.292C114.141 36.3361 114.266 36.3566 114.391 36.3522H116.047V34.6388H114.391C114.266 34.6324 114.142 34.651 114.025 34.6937C113.907 34.7364 113.8 34.8023 113.709 34.8873C113.623 34.9675 113.555 35.0643 113.508 35.1719C113.461 35.2794 113.436 35.3954 113.436 35.5127C113.436 35.6299 113.461 35.7459 113.508 35.8535C113.555 35.9611 113.623 36.0579 113.709 36.138V36.0952Z" fill="white"/>
<path d="M127.029 38.6309C127.265 38.8673 127.548 39.0531 127.86 39.1768C128.171 39.3006 128.505 39.3597 128.84 39.3505C129.282 39.3535 129.719 39.2569 130.117 39.0679C130.439 38.9326 130.732 38.7378 130.98 38.4938L131.247 38.2112L132.636 39.7274C132.636 39.7702 132.558 39.8389 132.489 39.916C132.355 40.0731 132.204 40.2166 132.041 40.3443C131.805 40.5433 131.554 40.7237 131.29 40.884C130.951 41.0642 130.592 41.2051 130.221 41.3038C129.768 41.4275 129.301 41.4909 128.832 41.4922C128.185 41.5046 127.542 41.389 126.941 41.1522C126.34 40.9154 125.792 40.5622 125.329 40.113C124.875 39.6929 124.513 39.1844 124.265 38.6191C124.017 38.0539 123.889 37.444 123.889 36.8275C123.889 36.2111 124.017 35.6013 124.265 35.0361C124.513 34.4708 124.875 33.9623 125.329 33.5422C125.792 33.0942 126.34 32.7422 126.942 32.5068C127.543 32.2715 128.186 32.1575 128.832 32.1716C129.292 32.1695 129.751 32.23 130.195 32.3514C130.565 32.4564 130.922 32.606 131.256 32.7969C131.509 32.9518 131.751 33.1235 131.981 33.3109C132.147 33.4414 132.298 33.5909 132.429 33.7564L132.576 33.9363L131.109 35.444C131.082 35.4011 131.05 35.3609 131.014 35.3241C130.926 35.2266 130.83 35.1351 130.73 35.05C130.584 34.9236 130.428 34.8089 130.264 34.7073C130.066 34.59 129.855 34.4979 129.634 34.4332C129.374 34.3552 129.104 34.3148 128.832 34.3133C128.342 34.3349 127.869 34.4941 127.467 34.7724C127.065 35.0508 126.751 35.4368 126.561 35.8855C126.371 36.3343 126.313 36.8273 126.395 37.3072C126.476 37.7872 126.693 38.2343 127.02 38.5966L127.029 38.6309Z" fill="white"/>
<path d="M141.522 39.2306V41.2437H134.552V32.4286H141.393V34.4503H136.958V35.8039H140.409V37.6971H136.958V39.2306H141.522ZM135.794 29.67C135.892 29.5688 136.01 29.4886 136.141 29.4341C136.271 29.3796 136.411 29.352 136.553 29.3531C136.835 29.3595 137.105 29.4733 137.305 29.6709C137.506 29.8685 137.623 30.1349 137.631 30.4153C137.623 30.6975 137.507 30.9659 137.306 31.1663C137.106 31.3667 136.837 31.484 136.553 31.4947C136.411 31.4942 136.27 31.4651 136.14 31.4091C136.009 31.3532 135.892 31.2716 135.794 31.1692C135.693 31.0718 135.613 30.9553 135.558 30.8265C135.503 30.6978 135.475 30.5594 135.475 30.4196C135.475 30.2798 135.503 30.1415 135.558 30.0127C135.613 29.884 135.693 29.7674 135.794 29.67ZM138.71 29.67C138.884 29.5083 139.108 29.4112 139.346 29.395C139.584 29.3788 139.82 29.4445 140.014 29.581C140.209 29.7176 140.35 29.9166 140.414 30.1445C140.478 30.3724 140.461 30.6152 140.366 30.8321C140.27 31.0489 140.103 31.2265 139.891 31.3347C139.679 31.443 139.436 31.4753 139.203 31.4264C138.97 31.3774 138.761 31.2501 138.611 31.0659C138.462 30.8817 138.381 30.6519 138.382 30.4153C138.381 30.274 138.409 30.134 138.466 30.0042C138.522 29.8745 138.605 29.7577 138.71 29.6614V29.67Z" fill="white"/>
<path d="M146.077 36.0093V41.2351H143.662V32.4199H145.818L148.544 35.8466L151.27 32.4199H153.427V41.2351H151.02V36.0093L148.544 39.1019L146.077 36.0093Z" fill="white"/>
<path d="M158.379 32.4199V37.3372L162.183 32.4199H164.271V41.2351H161.864V36.3263L158.051 41.2351H155.972V32.4199H158.379Z" fill="white"/>
<path d="M174.864 41.2351H172.449V37.8083H169.257V41.2351H166.85V32.4199H169.257V35.701H172.483V32.4199H174.899L174.864 41.2351Z" fill="white"/>
<path d="M179.73 39.3504L179.1 41.2351H176.512L179.877 32.4199H182.542L185.898 41.2351H183.31L182.672 39.3504H179.73ZM181.188 34.8786L180.368 37.4486H182.016L181.188 34.8786Z" fill="white"/>
</svg>
