<svg opacity="0.2" width="538" height="610" viewBox="0 0 538 610" fill="none" xmlns="http://www.w3.org/2000/svg">
<path d="M460.708 275.858L413.347 260.777L152.902 177.772L165.243 173.771L199.141 163.091L268.94 141.169L413.187 186.572V231.455L460.548 246.576V147.89L438.79 141.009L346.953 111.767L268.86 86.8857L190.766 111.767L114.155 136.169L98.9292 141.049L80.3775 146.89L77.172 147.89V203.453L124.533 218.534L413.026 310.54L459.265 325.301L486.432 333.942C484.903 344.773 482.546 355.472 479.38 365.944C474.867 381.246 468.672 396.004 460.908 409.947C456.123 418.56 450.769 426.845 444.881 434.748C426.221 459.783 402.425 480.553 375.082 495.672L268.9 554.276L162.718 495.672C129.111 477.111 100.964 450.081 81.0817 417.275C61.1997 384.469 50.2778 347.033 49.4046 308.7L0 292.979V303.22C0.0245639 351.233 12.9388 398.362 37.3987 439.701C61.8585 481.041 96.9697 515.08 139.078 538.275L269.02 609.999L398.962 538.275C437.31 517.11 469.885 486.895 493.845 450.269C499.236 442.156 504.159 433.742 508.59 425.068C515.776 410.952 521.689 396.227 526.26 381.065C529.435 370.645 531.951 360.037 533.793 349.303C536.461 334.127 537.801 318.748 537.8 303.34V300.82L488.596 285.138L460.708 275.858Z" fill="#A3B8D0"/>
<path d="M484.749 67.9243L406.134 43.1627L347.554 24.7616L279.237 3.2402L269.02 0L258.762 3.2402L190.646 24.7616L131.865 43.1627L53.2509 67.9243L0.079895 84.6455V262.817L49.2842 278.498L77.3321 287.418L124.693 302.499L387.422 386.265C381.49 394.801 374.637 402.662 366.987 409.706C358.489 417.613 349.072 424.476 338.939 430.148L269.18 468.63L199.261 430.268C181.071 420.216 165.274 406.357 152.95 389.641C140.626 372.925 132.066 353.748 127.858 333.421L77.9331 317.42C80.2556 349.198 90.4822 379.896 107.687 406.732C124.891 433.569 148.53 455.696 176.462 471.11L269.02 522.274L361.658 471.15C405.981 446.743 438.804 405.789 452.934 357.263L407.937 342.942L124.693 252.656L77.3321 237.575L49.2842 228.655V124.968L64.3099 120.248L141.362 96.0062L220.016 71.2446L269.02 55.8436L318.024 71.2446L396.638 96.0062L488.796 124.968V255.496L538 271.177V84.6455L484.749 67.9243Z" fill="#A3B8D0"/>
</svg>
