<svg width="24" height="24" viewBox="0 0 24 24" fill="none" xmlns="http://www.w3.org/2000/svg">
<path d="M1.64964 10.61C8.0933 7.78776 12.3891 5.92701 14.537 5.02806C20.6768 2.46107 21.951 2.01524 22.7832 2.00013C22.9662 1.99718 23.3737 2.04267 23.6396 2.25881C23.8606 2.4411 23.9228 2.68763 23.9538 2.86072C23.9815 3.03363 24.0194 3.42773 23.9884 3.73536C23.6569 7.24923 22.2169 15.7762 21.4848 19.712C21.1775 21.3772 20.5662 21.9356 19.9758 21.9901C18.6912 22.1088 17.7174 21.1373 16.4742 20.3182C14.5301 19.0359 13.4319 18.238 11.543 16.987C9.36062 15.5412 10.7764 14.7464 12.0196 13.4478C12.3442 13.1079 18.0005 7.93603 18.1076 7.46693C18.1214 7.40825 18.1352 7.1895 18.004 7.07423C17.8762 6.9586 17.6863 6.99819 17.5482 7.02944C17.3513 7.07388 14.2469 9.13914 8.22452 13.2249C7.34396 13.8339 6.54627 14.1308 5.828 14.1151C5.04067 14.0981 3.52127 13.6665 2.39207 13.2978C1.01079 12.8454 -0.0907762 12.6061 0.00591329 11.8377C0.054258 11.4377 0.603316 11.0284 1.64964 10.61Z" fill="white"/>
</svg>
