<svg width="24" height="24" viewBox="0 0 24 24" fill="none" xmlns="http://www.w3.org/2000/svg">
<g clip-path="url(#clip0_1015_3064)">
<path d="M0.100027 11.8919C0.0994444 13.9876 0.649496 16.0339 1.69541 17.8375L0 24L6.33492 22.3464C8.08707 23.296 10.0502 23.7936 12.0452 23.7937H12.0505C18.6362 23.7937 23.9972 18.4587 24 11.9012C24.0013 8.7237 22.7594 5.73575 20.503 3.48778C18.2471 1.24 15.2468 0.00145018 12.05 0C5.46342 0 0.102843 5.33473 0.100124 11.8919" fill="white"/>
<path d="M9.05083 6.51101C8.82964 6.02512 8.59687 6.01531 8.38653 6.00679C8.21429 5.99946 8.01739 6.00001 7.82067 6.00001C7.62377 6.00001 7.30386 6.07322 7.03345 6.36505C6.76275 6.65715 6 7.36303 6 8.79872C6 10.2345 7.05801 11.622 7.2055 11.8169C7.35318 12.0114 9.24801 15.0519 12.249 16.2216C14.743 17.1937 15.2506 17.0003 15.7919 16.9516C16.3332 16.903 17.5387 16.2459 17.7847 15.5645C18.0308 14.8831 18.0308 14.2991 17.957 14.1771C17.8832 14.0555 17.6863 13.9824 17.3911 13.8366C17.0957 13.6906 15.6442 12.9846 15.3736 12.8872C15.1029 12.7899 14.9061 12.7414 14.7092 13.0336C14.5123 13.3253 13.9469 13.9824 13.7746 14.1771C13.6024 14.3721 13.4301 14.3964 13.1349 14.2505C12.8395 14.104 11.8886 13.7963 10.7605 12.8022C9.88284 12.0287 9.29028 11.0735 9.11804 10.7813C8.9458 10.4896 9.09959 10.3314 9.24764 10.186C9.3803 10.0553 9.54299 9.84527 9.69076 9.67494C9.83797 9.50451 9.8871 9.38292 9.98555 9.18831C10.0841 8.99351 10.0348 8.82309 9.96108 8.67713C9.8871 8.53117 9.31337 7.08797 9.05083 6.51101Z" fill="#041B44"/>
</g>
<defs>
<clipPath id="clip0_1015_3064">
<rect width="24" height="24" fill="white"/>
</clipPath>
</defs>
</svg>
